/* XPM */
static char *_f3fdcb89bb842a4dc8b1bf91a0cf37aEnPnr53brhzcFfFV[] = {
/* columns rows colors chars-per-pixel */
"32 32 10 1 ",
"  c black",
". c #00FF00",
"X c #F00000",
"o c #A05028",
"O c #D88818",
"+ c #F8B838",
"@ c #507080",
"# c #90A8E0",
"$ c #A8F8F8",
"% c #F8F8F8",
/* pixels */
"................................",
"................................",
"................................",
"..............XX...XX...........",
"..............X+X.X+X...........",
"..............X++X+X............",
"..............X+%%+X............",
".............X+%OXXo............",
"..............X+%%++o...........",
"...............X+XX+X...........",
"...............XX..XX...........",
".................    ...........",
"..................... ..........",
"...........      .. .. .........",
".......... #%%%$#  % . .........",
"......... #%@@@@@# @$ ..........",
"......... %@@##@@@@ @# .........",
"........ #@ #%%# @@ @  .........",
"........ ##  $$  #@@   .........",
"........ ### ## ##@@  ..........",
"........ #$%$####@@# ...........",
"........ #     @#@@# ...........",
"........        @@@# ...........",
".........  oXXo @@# ............",
"......... @ oX  @@  ............",
".......... @$##@   .............",
"...........      ...............",
"................................",
"................................",
"................................",
"................................",
"................................"
};
